<?xml version="1.0"?>
<svg xmlns="http://www.w3.org/2000/svg" xmlns:xlink="http://www.w3.org/1999/xlink" xmlns:svgjs="http://svgjs.com/svgjs" version="1.1" width="512" height="512" x="0" y="0" viewBox="0 0 512 512" style="enable-background:new 0 0 512 512" xml:space="preserve" class=""><g>
<g xmlns="http://www.w3.org/2000/svg">
	<g>
		<path d="M160.467,21.229L139.238,0c-64.439,64.438-64.444,169.083,0,233.525l21.229-21.229    C107.762,159.59,107.759,73.938,160.467,21.229z" fill="#1a7900" data-original="#000000" style="" class=""/>
	</g>
</g>
<g xmlns="http://www.w3.org/2000/svg">
	<g>
		<path d="M372.763,0l-21.229,21.229c52.677,52.677,52.677,138.389,0,191.066l21.229,21.229    C437.145,169.142,437.145,64.384,372.763,0z" fill="#1a7900" data-original="#000000" style="" class=""/>
	</g>
</g>
<g xmlns="http://www.w3.org/2000/svg">
	<g>
		<path d="M202.926,63.688l-21.229-21.229c-40.971,40.971-40.971,107.636,0,148.606l21.229-21.229    C173.662,140.57,173.662,92.953,202.926,63.688z" fill="#1a7900" data-original="#000000" style="" class=""/>
	</g>
</g>
<g xmlns="http://www.w3.org/2000/svg">
	<g>
		<path d="M330.303,42.459l-21.229,21.229c29.265,29.266,29.265,76.883,0,106.148l21.229,21.229    C371.274,150.095,371.274,83.429,330.303,42.459z" fill="#1a7900" data-original="#000000" style="" class=""/>
	</g>
</g>
<g xmlns="http://www.w3.org/2000/svg">
	<g>
		<path d="M386.814,481.977l-111.32-324.622c15.098-7.28,25.541-22.74,25.541-40.593c0-24.832-20.203-45.035-45.035-45.035    s-45.035,20.203-45.035,45.035c0,17.853,10.443,33.313,25.541,40.593l-111.32,324.622H75.861V512h360.277v-30.023H386.814z     M256,101.75c8.277,0,15.012,6.734,15.012,15.012c0,8.277-6.734,15.012-15.012,15.012c-8.277,0-15.012-6.734-15.012-15.012    C240.988,108.484,247.723,101.75,256,101.75z M256.001,193.063l16.024,46.728h-32.049L256.001,193.063z M229.681,269.815h52.64    v-0.001l16.804,49.003L256,360.383l-43.123-41.566L229.681,269.815z M202.13,350.157l32.24,31.076l-64.076,61.763L202.13,350.157z     M173.112,481.977L256,402.082l82.888,79.894H173.112z M277.632,381.233l32.24-31.076l31.836,92.838L277.632,381.233z" fill="#1a7900" data-original="#000000" style="" class=""/>
	</g>
</g>
<g xmlns="http://www.w3.org/2000/svg">
</g>
<g xmlns="http://www.w3.org/2000/svg">
</g>
<g xmlns="http://www.w3.org/2000/svg">
</g>
<g xmlns="http://www.w3.org/2000/svg">
</g>
<g xmlns="http://www.w3.org/2000/svg">
</g>
<g xmlns="http://www.w3.org/2000/svg">
</g>
<g xmlns="http://www.w3.org/2000/svg">
</g>
<g xmlns="http://www.w3.org/2000/svg">
</g>
<g xmlns="http://www.w3.org/2000/svg">
</g>
<g xmlns="http://www.w3.org/2000/svg">
</g>
<g xmlns="http://www.w3.org/2000/svg">
</g>
<g xmlns="http://www.w3.org/2000/svg">
</g>
<g xmlns="http://www.w3.org/2000/svg">
</g>
<g xmlns="http://www.w3.org/2000/svg">
</g>
<g xmlns="http://www.w3.org/2000/svg">
</g>
</g></svg>
