<svg width="30" height="30" viewBox="0 0 30 30" fill="none" xmlns="http://www.w3.org/2000/svg">
<circle cx="15" cy="15" r="15" fill="#1A7900"/>
<g clip-path="url(#clip0)">
<path d="M21.9357 14.2455C21.8861 14.1536 21.8106 14.0782 21.7187 14.0286L19.6096 12.8928L21.7187 11.7571C21.8922 11.6637 22.0004 11.4826 22.0005 11.2856C22.0004 11.0886 21.8922 10.9076 21.7187 10.8142L14.7542 7.06407C14.5957 6.97872 14.4049 6.97872 14.2464 7.06407L7.28186 10.8142C7.02147 10.9547 6.92435 11.2797 7.06489 11.5401C7.11451 11.632 7.18995 11.7075 7.28186 11.7571L9.39104 12.8928L7.28186 14.0286C7.02147 14.1691 6.92435 14.4941 7.06489 14.7545C7.11451 14.8464 7.18995 14.9218 7.28186 14.9714L9.39101 16.1072L7.28186 17.2429C7.02147 17.3835 6.92435 17.7085 7.06489 17.9689C7.11451 18.0608 7.18995 18.1362 7.28186 18.1858L14.2463 21.9359C14.4048 22.0213 14.5957 22.0213 14.7542 21.9359L21.7187 18.1858C21.9791 18.0453 22.0762 17.7203 21.9357 17.4599C21.886 17.368 21.8106 17.2925 21.7187 17.2429L19.6095 16.1072L21.7187 14.9715C21.9791 14.8309 22.0762 14.5059 21.9357 14.2455ZM8.66564 11.2856L14.5003 8.14412L20.3349 11.2856L14.5003 14.4272L8.66564 11.2856ZM20.3349 17.7144L14.5003 20.8559L8.66564 17.7144L10.5203 16.7158L14.2464 18.7216C14.4049 18.8069 14.5957 18.8069 14.7542 18.7216L18.4802 16.7158L20.3349 17.7144ZM14.5003 17.6415L8.66564 14.5L10.5203 13.5014L14.2464 15.5072C14.4049 15.5926 14.5957 15.5926 14.7542 15.5072L18.4802 13.5014L20.3349 14.5L14.5003 17.6415Z" fill="white"/>
</g>
<defs>
<clipPath id="clip0">
<rect width="15" height="15" fill="white" transform="translate(7 7)"/>
</clipPath>
</defs>
</svg>
