<svg width="45" height="45" viewBox="0 0 45 45" fill="none" xmlns="http://www.w3.org/2000/svg">
<circle cx="22.5" cy="22.5" r="22.5" fill="#1A7900"/>
<g clip-path="url(#clip0)">
<path d="M35.8622 21.9655H17.7586C17.1873 21.9655 16.7241 22.4286 16.7241 23C16.7241 23.5713 17.1873 24.0345 17.7586 24.0345H35.8621C36.4334 24.0345 36.8966 23.5713 36.8966 23C36.8966 22.4286 36.4334 21.9655 35.8622 21.9655Z" fill="white"/>
<path d="M9.68962 25.5861C11.1179 25.5861 12.2758 24.4283 12.2758 23C12.2758 21.5717 11.1179 20.4138 9.68962 20.4138C8.26132 20.4138 7.10345 21.5717 7.10345 23C7.10345 24.4283 8.26132 25.5861 9.68962 25.5861Z" fill="white"/>
<path d="M17.7586 11.6207H35.8621C36.4334 11.6207 36.8966 11.1575 36.8966 10.5862C36.8966 10.0148 36.4334 9.55168 35.8621 9.55168H17.7586C17.1873 9.55168 16.7241 10.0148 16.7241 10.5862C16.7241 11.1575 17.1874 11.6207 17.7586 11.6207Z" fill="white"/>
<path d="M9.68962 13.1723C11.1179 13.1723 12.2758 12.0145 12.2758 10.5862C12.2758 9.15787 11.1179 8 9.68962 8C8.26132 8 7.10345 9.15787 7.10345 10.5862C7.10345 12.0145 8.26132 13.1723 9.68962 13.1723Z" fill="white"/>
<path d="M35.8622 34.3794H17.7586C17.1873 34.3794 16.7241 34.8425 16.7241 35.4139C16.7241 35.9852 17.1873 36.4483 17.7586 36.4483H35.8621C36.4334 36.4483 36.8966 35.9852 36.8966 35.4139C36.8966 34.8425 36.4334 34.3794 35.8622 34.3794Z" fill="white"/>
<path d="M9.68962 38C11.1179 38 12.2758 36.8421 12.2758 35.4138C12.2758 33.9855 11.1179 32.8277 9.68962 32.8277C8.26132 32.8277 7.10345 33.9855 7.10345 35.4138C7.10345 36.8421 8.26132 38 9.68962 38Z" fill="white"/>
</g>
<defs>
<clipPath id="clip0">
<rect width="30" height="30" fill="white" transform="translate(7 8)"/>
</clipPath>
</defs>
</svg>
