<svg width="45" height="45" viewBox="0 0 45 45" fill="none" xmlns="http://www.w3.org/2000/svg">
<path d="M45 22.5C45 34.9264 34.9264 45 22.5 45C10.0736 45 0 34.9264 0 22.5C0 10.0736 10.0736 0 22.5 0C34.9264 0 45 10.0736 45 22.5Z" fill="#1A7900"/>
<g clip-path="url(#clip0)">
<path d="M31.582 23.4021V20.5977C31.582 16.5065 28.8626 13.039 25.1367 11.9064V10.6367C25.1367 9.18283 23.9539 8 22.5 8C21.0461 8 19.8633 9.18283 19.8633 10.6367V11.9064C16.1373 13.039 13.418 16.5065 13.418 20.5977V23.4021C13.418 26.9957 12.0482 30.4033 9.56093 32.9971C9.31718 33.2513 9.24868 33.6264 9.38684 33.9503C9.52501 34.2742 9.84317 34.4844 10.1953 34.4844H18.1939C18.6022 36.4878 20.3778 38 22.5 38C24.6223 38 26.3978 36.4878 26.8061 34.4844H34.8047C35.1568 34.4844 35.4749 34.2742 35.6131 33.9503C35.7513 33.6264 35.6828 33.2513 35.4391 32.9971C32.9518 30.4033 31.582 26.9957 31.582 23.4021ZM21.6211 10.6367C21.6211 10.1521 22.0154 9.75781 22.5 9.75781C22.9846 9.75781 23.3789 10.1521 23.3789 10.6367V11.5583C23.0896 11.5304 22.7965 11.5156 22.5 11.5156C22.2035 11.5156 21.9104 11.5304 21.6211 11.5583V10.6367ZM22.5 36.2422C21.3542 36.2422 20.3773 35.5074 20.0145 34.4844H24.9856C24.6227 35.5074 23.6458 36.2422 22.5 36.2422ZM12.0897 32.7266C14.0913 30.0434 15.1758 26.7964 15.1758 23.4021V20.5977C15.1758 16.5591 18.4614 13.2734 22.5 13.2734C26.5386 13.2734 29.8242 16.5591 29.8242 20.5977V23.4021C29.8242 26.7964 30.9087 30.0434 32.9104 32.7266H12.0897Z" fill="white"/>
<path d="M33.9258 20.5976C33.9258 21.083 34.3193 21.4766 34.8047 21.4766C35.2901 21.4766 35.6836 21.083 35.6836 20.5976C35.6836 17.0762 34.3123 13.7654 31.8222 11.2754C31.479 10.9322 30.9225 10.9321 30.5793 11.2754C30.236 11.6186 30.236 12.1751 30.5793 12.5183C32.7373 14.6764 33.9258 17.5457 33.9258 20.5976Z" fill="white"/>
<path d="M10.1953 21.4765C10.6807 21.4765 11.0742 21.083 11.0742 20.5976C11.0742 17.5457 12.2627 14.6765 14.4207 12.5184C14.764 12.1751 14.764 11.6187 14.4207 11.2754C14.0776 10.9322 13.521 10.9322 13.1778 11.2754C10.6877 13.7655 9.31641 17.0762 9.31641 20.5976C9.31641 21.083 9.70992 21.4765 10.1953 21.4765Z" fill="white"/>
</g>
<defs>
<clipPath id="clip0">
<rect width="30" height="30" fill="white" transform="translate(7.5 8)"/>
</clipPath>
</defs>
</svg>
