<svg width="45" height="45" viewBox="0 0 45 45" fill="none" xmlns="http://www.w3.org/2000/svg">
<circle cx="22.5" cy="22.5" r="22.5" fill="#1A7900"/>
<g clip-path="url(#clip0)">
<path d="M36.1211 22.122C35.6357 22.122 35.2422 22.5155 35.2422 23.0009C35.2422 30.3027 29.3018 36.2432 22.0001 36.2432C14.6985 36.2431 8.75799 30.3027 8.75781 23.001C8.75799 15.6992 14.6983 9.75882 21.9999 9.75882C25.2424 9.75876 28.3066 10.917 30.7213 13.0366L27.9621 15.7959C26.2886 14.4061 24.2025 13.6494 22.0001 13.6494C16.8436 13.6494 12.6486 17.8445 12.6486 23.001C12.6486 28.1575 16.8436 32.3526 22.0001 32.3526C27.1565 32.3526 31.3516 28.1575 31.3516 23.001C31.3516 22.5156 30.9581 22.1221 30.4727 22.1221C29.9873 22.1221 29.5938 22.5156 29.5938 23.001C29.5938 27.1882 26.1873 30.5948 22.0001 30.5948C17.8129 30.5948 14.4064 27.1882 14.4064 23.001C14.4064 18.8138 17.8129 15.4073 22.0001 15.4073C23.7324 15.4073 25.376 15.9839 26.7124 17.0456L23.9229 19.8352C23.3491 19.4853 22.689 19.2979 21.9998 19.2979C19.9579 19.2979 18.2968 20.9591 18.2968 23.0009C18.2968 25.0428 19.9581 26.704 21.9999 26.704C24.0418 26.704 25.7031 25.0429 25.7031 23.0011C25.7031 22.3119 25.5156 21.6519 25.1658 21.0781L32.6065 13.6373C32.7781 13.4656 32.8639 13.2407 32.8639 13.0158C32.8639 12.7908 32.7781 12.5658 32.6065 12.3941C29.7733 9.56107 26.0065 8.00095 21.9999 8.00101C17.9934 8.00101 14.2265 9.5613 11.3935 12.3944C8.56035 15.2274 7.00006 18.9944 7 23.001C7.00006 27.0076 8.56041 30.7743 11.3935 33.6075C14.2266 36.4406 17.9934 38.0009 22.0001 38.0009C26.0067 38.0009 29.7735 36.4407 32.6066 33.6075C35.4397 30.7743 37 27.0075 37 23.0009C37 22.5155 36.6065 22.122 36.1211 22.122ZM22 24.9462C20.9273 24.9462 20.0547 24.0736 20.0547 23.0009C20.0547 21.9283 20.9273 21.0558 22.0001 21.0558C22.5196 21.0557 23.008 21.258 23.3754 21.6253C23.3754 21.6253 23.3755 21.6254 23.3756 21.6255C23.3757 21.6255 23.3757 21.6256 23.3758 21.6256C23.743 21.993 23.9454 22.4815 23.9454 23.0011C23.9453 24.0737 23.0727 24.9462 22 24.9462Z" fill="white"/>
</g>
<defs>
<clipPath id="clip0">
<rect width="30" height="30" fill="white" transform="translate(7 8)"/>
</clipPath>
</defs>
</svg>
