<svg width="25" height="25" viewBox="0 0 25 25" fill="none" xmlns="http://www.w3.org/2000/svg">
<circle cx="12.5" cy="12.5" r="12.5" fill="#C90000"/>
<circle cx="12.5" cy="12.5" r="10.5" fill="#0767D8"/>
<path d="M10.3223 12.5039L10.7324 8.89062H14.7168V10.0674H11.8896L11.7139 11.5957C12.0492 11.4167 12.4056 11.3271 12.7832 11.3271C13.4603 11.3271 13.9909 11.5371 14.375 11.957C14.7591 12.377 14.9512 12.9645 14.9512 13.7197C14.9512 14.1787 14.8535 14.5905 14.6582 14.9551C14.4661 15.3164 14.1895 15.598 13.8281 15.7998C13.4668 15.9984 13.0404 16.0977 12.5488 16.0977C12.1191 16.0977 11.7204 16.0114 11.3525 15.8389C10.9847 15.6631 10.6934 15.4173 10.4785 15.1016C10.2669 14.7858 10.1546 14.4261 10.1416 14.0225H11.5381C11.5674 14.3187 11.6699 14.5498 11.8457 14.7158C12.0247 14.8786 12.2575 14.96 12.5439 14.96C12.863 14.96 13.1087 14.846 13.2812 14.6182C13.4538 14.387 13.54 14.0615 13.54 13.6416C13.54 13.238 13.4408 12.9287 13.2422 12.7139C13.0436 12.499 12.762 12.3916 12.3975 12.3916C12.0622 12.3916 11.7904 12.4795 11.582 12.6553L11.4453 12.7822L10.3223 12.5039Z" fill="#FDF8F8"/>
</svg>
