<svg width="25" height="25" viewBox="0 0 25 25" fill="none" xmlns="http://www.w3.org/2000/svg">
<circle cx="12.5" cy="12.5" r="12.5" fill="#C90000"/>
<circle cx="12.5" cy="12.5" r="10.5" fill="#600178"/>
<path d="M7.61784 12.5039L8.02799 8.89062H12.0124V10.0674H9.18522L9.00944 11.5957C9.34473 11.4167 9.70117 11.3271 10.0788 11.3271C10.7559 11.3271 11.2865 11.5371 11.6706 11.957C12.0547 12.377 12.2467 12.9645 12.2467 13.7197C12.2467 14.1787 12.1491 14.5905 11.9538 14.9551C11.7617 15.3164 11.485 15.598 11.1237 15.7998C10.7624 15.9984 10.3359 16.0977 9.8444 16.0977C9.41471 16.0977 9.01595 16.0114 8.64811 15.8389C8.28027 15.6631 7.98893 15.4173 7.77409 15.1016C7.5625 14.7858 7.4502 14.4261 7.43717 14.0225H8.83366C8.86296 14.3187 8.96549 14.5498 9.14128 14.7158C9.32031 14.8786 9.55306 14.96 9.83952 14.96C10.1585 14.96 10.4043 14.846 10.5768 14.6182C10.7493 14.387 10.8356 14.0615 10.8356 13.6416C10.8356 13.238 10.7363 12.9287 10.5378 12.7139C10.3392 12.499 10.0576 12.3916 9.69303 12.3916C9.35775 12.3916 9.08594 12.4795 8.8776 12.6553L8.74089 12.7822L7.61784 12.5039ZM17.6898 16H12.8167V15.0332L15.1165 12.582C15.4323 12.237 15.665 11.9359 15.8148 11.6787C15.9678 11.4215 16.0443 11.1774 16.0443 10.9463C16.0443 10.6305 15.9645 10.3831 15.805 10.2041C15.6455 10.0218 15.4176 9.93066 15.1214 9.93066C14.8024 9.93066 14.5501 10.0413 14.3646 10.2627C14.1823 10.4808 14.0911 10.7689 14.0911 11.127H12.6751C12.6751 10.694 12.7777 10.2985 12.9827 9.94043C13.1911 9.58236 13.484 9.30241 13.8617 9.10059C14.2393 8.89551 14.6673 8.79297 15.1458 8.79297C15.8783 8.79297 16.4463 8.96875 16.8499 9.32031C17.2568 9.67188 17.4603 10.1683 17.4603 10.8096C17.4603 11.1611 17.3691 11.5192 17.1868 11.8838C17.0046 12.2484 16.6921 12.6732 16.2493 13.1582L14.6331 14.8623H17.6898V16Z" fill="#FDF8F8"/>
</svg>
