<svg width="25" height="25" viewBox="0 0 25 25" fill="none" xmlns="http://www.w3.org/2000/svg">
<circle cx="12.5" cy="12.5" r="12.5" fill="#C90000"/>
<circle cx="12.5" cy="12.5" r="10.5" fill="#FB0303"/>
<path d="M8.13118 16H6.72005V10.5605L5.03548 11.083V9.93555L7.97982 8.88086H8.13118V16ZM14.8975 13.0605C14.8975 14.0436 14.694 14.7956 14.2871 15.3164C13.8802 15.8372 13.2845 16.0977 12.5 16.0977C11.7253 16.0977 11.1328 15.8421 10.7227 15.3311C10.3125 14.82 10.1025 14.0876 10.0928 13.1338V11.8252C10.0928 10.8324 10.2979 10.0788 10.708 9.56445C11.1214 9.05013 11.7155 8.79297 12.4902 8.79297C13.265 8.79297 13.8574 9.0485 14.2676 9.55957C14.6777 10.0674 14.8877 10.7982 14.8975 11.752V13.0605ZM13.4863 11.625C13.4863 11.0358 13.4049 10.6077 13.2422 10.3408C13.0827 10.0706 12.832 9.93555 12.4902 9.93555C12.1582 9.93555 11.9124 10.0641 11.7529 10.3213C11.5967 10.5752 11.5137 10.974 11.5039 11.5176V13.2461C11.5039 13.8255 11.582 14.2568 11.7383 14.54C11.8978 14.82 12.1517 14.96 12.5 14.96C12.8451 14.96 13.0941 14.8249 13.2471 14.5547C13.4001 14.2845 13.4798 13.8711 13.4863 13.3145V11.625ZM20.3942 16H15.5212V15.0332L17.821 12.582C18.1367 12.237 18.3695 11.9359 18.5192 11.6787C18.6722 11.4215 18.7487 11.1774 18.7487 10.9463C18.7487 10.6305 18.6689 10.3831 18.5094 10.2041C18.3499 10.0218 18.1221 9.93066 17.8258 9.93066C17.5068 9.93066 17.2546 10.0413 17.069 10.2627C16.8867 10.4808 16.7956 10.7689 16.7956 11.127H15.3796C15.3796 10.694 15.4821 10.2985 15.6872 9.94043C15.8955 9.58236 16.1885 9.30241 16.5661 9.10059C16.9437 8.89551 17.3717 8.79297 17.8503 8.79297C18.5827 8.79297 19.1507 8.96875 19.5544 9.32031C19.9613 9.67188 20.1647 10.1683 20.1647 10.8096C20.1647 11.1611 20.0736 11.5192 19.8913 11.8838C19.709 12.2484 19.3965 12.6732 18.9538 13.1582L17.3376 14.8623H20.3942V16Z" fill="#FDF8F8"/>
</svg>
