<svg width="25" height="25" viewBox="0 0 25 25" fill="none" xmlns="http://www.w3.org/2000/svg">
<circle cx="12.5" cy="12.5" r="12.5" fill="#C90000"/>
<circle cx="12.5" cy="12.5" r="10.5" fill="#030303"/>
<path d="M14.8975 13.0605C14.8975 14.0436 14.694 14.7956 14.2871 15.3164C13.8802 15.8372 13.2845 16.0977 12.5 16.0977C11.7253 16.0977 11.1328 15.8421 10.7227 15.3311C10.3125 14.82 10.1025 14.0876 10.0928 13.1338V11.8252C10.0928 10.8324 10.2979 10.0788 10.708 9.56445C11.1214 9.05013 11.7155 8.79297 12.4902 8.79297C13.265 8.79297 13.8574 9.0485 14.2676 9.55957C14.6777 10.0674 14.8877 10.7982 14.8975 11.752V13.0605ZM13.4863 11.625C13.4863 11.0358 13.4049 10.6077 13.2422 10.3408C13.0827 10.0706 12.832 9.93555 12.4902 9.93555C12.1582 9.93555 11.9124 10.0641 11.7529 10.3213C11.5967 10.5752 11.5137 10.974 11.5039 11.5176V13.2461C11.5039 13.8255 11.582 14.2568 11.7383 14.54C11.8978 14.82 12.1517 14.96 12.5 14.96C12.8451 14.96 13.0941 14.8249 13.2471 14.5547C13.4001 14.2845 13.4798 13.8711 13.4863 13.3145V11.625Z" fill="#FDF8F8"/>
</svg>
