<svg width="25" height="25" viewBox="0 0 25 25" fill="none" xmlns="http://www.w3.org/2000/svg">
<circle cx="12.5" cy="12.5" r="12.5" fill="#C90000"/>
<circle cx="12.5" cy="12.5" r="10.5" fill="#136B04"/>
<path d="M10.8356 16H9.42448V10.5605L7.73991 11.083V9.93555L10.6842 8.88086H10.8356V16ZM17.4505 10.7803C17.4505 11.1253 17.3643 11.4313 17.1917 11.6982C17.0192 11.9652 16.7816 12.1784 16.4788 12.3379C16.8239 12.5039 17.0973 12.7334 17.2992 13.0264C17.501 13.3161 17.6019 13.6579 17.6019 14.0518C17.6019 14.6833 17.387 15.1829 16.9574 15.5508C16.5277 15.9154 15.9434 16.0977 15.2044 16.0977C14.4655 16.0977 13.8796 15.9137 13.4466 15.5459C13.0137 15.1781 12.7972 14.68 12.7972 14.0518C12.7972 13.6579 12.8981 13.3145 13.0999 13.0215C13.3018 12.7285 13.5736 12.5007 13.9154 12.3379C13.6126 12.1784 13.375 11.9652 13.2025 11.6982C13.0332 11.4313 12.9486 11.1253 12.9486 10.7803C12.9486 10.1748 13.1504 9.69303 13.554 9.33496C13.9577 8.97363 14.5062 8.79297 15.1995 8.79297C15.8896 8.79297 16.4365 8.97201 16.8402 9.33008C17.2471 9.6849 17.4505 10.1683 17.4505 10.7803ZM16.1859 13.9492C16.1859 13.64 16.0964 13.3926 15.9173 13.207C15.7383 13.0215 15.4974 12.9287 15.1947 12.9287C14.8952 12.9287 14.6559 13.0215 14.4769 13.207C14.2979 13.3893 14.2083 13.6367 14.2083 13.9492C14.2083 14.252 14.2962 14.4961 14.472 14.6816C14.6478 14.8672 14.8919 14.96 15.2044 14.96C15.5104 14.96 15.7497 14.8704 15.9222 14.6914C16.098 14.5124 16.1859 14.265 16.1859 13.9492ZM16.0394 10.8486C16.0394 10.5719 15.9661 10.3506 15.8197 10.1846C15.6732 10.0153 15.4665 9.93066 15.1995 9.93066C14.9359 9.93066 14.7308 10.012 14.5843 10.1748C14.4378 10.3376 14.3646 10.5622 14.3646 10.8486C14.3646 11.1318 14.4378 11.3597 14.5843 11.5322C14.7308 11.7048 14.9375 11.791 15.2044 11.791C15.4714 11.791 15.6764 11.7048 15.8197 11.5322C15.9661 11.3597 16.0394 11.1318 16.0394 10.8486Z" fill="#FDF8F8"/>
</svg>
