<svg width="45" height="45" viewBox="0 0 45 45" fill="none" xmlns="http://www.w3.org/2000/svg">
<circle cx="22.5" cy="22.5" r="22.5" fill="#1A7900"/>
<path d="M16.4024 9.24389L15.1585 8C11.3828 11.7757 11.3825 17.9072 15.1585 21.6831L16.4024 20.4392C13.3142 17.351 13.314 12.3323 16.4024 9.24389Z" fill="white"/>
<path d="M28.8416 8L27.5977 9.24389C30.6842 12.3304 30.6842 17.3526 27.5977 20.4392L28.8416 21.683C32.614 17.9107 32.614 11.7725 28.8416 8Z" fill="white"/>
<path d="M18.8902 11.7317L17.6463 10.4878C15.2457 12.8885 15.2457 16.7946 17.6463 19.1952L18.8902 17.9513C17.1755 16.2365 17.1755 13.4465 18.8902 11.7317Z" fill="white"/>
<path d="M26.3537 10.4878L25.1098 11.7317C26.8246 13.4465 26.8246 16.2366 25.1098 17.9513L26.3537 19.1952C28.7543 16.7946 28.7543 12.8884 26.3537 10.4878Z" fill="white"/>
<path d="M29.6649 36.2408L23.1422 17.22C24.0269 16.7935 24.6388 15.8876 24.6388 14.8415C24.6388 13.3865 23.455 12.2028 22 12.2028C20.545 12.2028 19.3612 13.3865 19.3612 14.8415C19.3612 15.8876 19.9731 16.7935 20.8578 17.22L14.3351 36.2408H11.445V38H32.555V36.2408H29.6649ZM22 13.9619C22.485 13.9619 22.8796 14.3565 22.8796 14.8415C22.8796 15.3265 22.485 15.7211 22 15.7211C21.515 15.7211 21.1204 15.3266 21.1204 14.8415C21.1204 14.3565 21.515 13.9619 22 13.9619ZM22.0001 19.3123L22.939 22.0503H21.0611L22.0001 19.3123ZM20.4579 23.8095H23.5422V23.8094L24.5269 26.6807L22 29.1162L19.4733 26.6807L20.4579 23.8095ZM18.8436 28.517L20.7326 30.3379L16.9782 33.9568L18.8436 28.517ZM17.1433 36.2408L22 31.5595L26.8567 36.2408H17.1433V36.2408ZM23.2675 30.3379L25.1566 28.517L27.0219 33.9567L23.2675 30.3379Z" fill="white"/>
</svg>
