<svg width="45" height="45" viewBox="0 0 45 45" fill="none" xmlns="http://www.w3.org/2000/svg">
<circle cx="22.5" cy="22.5" r="22.5" fill="#1A7900"/>
<g clip-path="url(#clip0)">
<path d="M36.4588 31.0729C36.1599 31.0729 35.9176 31.3152 35.9176 31.6141C35.9176 34.5385 33.5384 36.9176 30.6141 36.9176C30.3152 36.9176 30.0729 37.1599 30.0729 37.4588C30.0729 37.7577 30.3152 38 30.6141 38C34.1352 38 36.9999 35.1353 36.9999 31.6141C36.9999 31.3152 36.7576 31.0729 36.4588 31.0729Z" fill="white"/>
<path d="M30.6141 36.0518C33.061 36.0518 35.0517 34.061 35.0517 31.6141C35.0517 31.3152 34.8094 31.0729 34.5105 31.0729C34.2116 31.0729 33.9693 31.3152 33.9693 31.6141C33.9693 33.4642 32.4642 34.9694 30.6141 34.9694C30.3152 34.9694 30.0729 35.2117 30.0729 35.5106C30.0729 35.8095 30.3152 36.0518 30.6141 36.0518Z" fill="white"/>
<path d="M30.6141 34.1035C31.9867 34.1035 33.1035 32.9867 33.1035 31.6141C33.1035 31.3152 32.8612 31.0729 32.5623 31.0729C32.2634 31.0729 32.0211 31.3152 32.0211 31.6141C32.0211 32.3899 31.3899 33.0212 30.6141 33.0212C30.3152 33.0212 30.0729 33.2635 30.0729 33.5623C30.0729 33.8612 30.3152 34.1035 30.6141 34.1035Z" fill="white"/>
<path d="M30.3025 32.0676C30.4081 32.1732 30.5466 32.2261 30.6851 32.2261C30.8236 32.2261 30.9621 32.1732 31.0678 32.0675C31.2791 31.8562 31.2791 31.5135 31.0678 31.3022L30.8777 31.1121L33.7094 28.2804C33.811 28.1789 33.868 28.0413 33.868 27.8977C33.868 27.7542 33.811 27.6165 33.7094 27.5151C32.3082 26.1139 30.2865 25.7039 28.5208 26.2825L27.6617 25.4234L29.0233 24.0618C29.2347 23.8504 29.2347 23.5078 29.0233 23.2965L25.5416 19.8148L26.9166 18.4398L28.6258 20.1491C28.7315 20.2547 28.87 20.3076 29.0085 20.3076C29.1469 20.3076 29.2855 20.2548 29.3911 20.1491L36.4324 13.1078C36.5339 13.0063 36.591 12.8686 36.591 12.7251C36.591 12.5816 36.5339 12.4439 36.4324 12.3425L32.2487 8.15853C32.1472 8.057 32.0096 8 31.866 8C31.7225 8 31.5848 8.057 31.4834 8.15853L24.4421 15.1998C24.3406 15.3013 24.2836 15.439 24.2836 15.5825C24.2836 15.726 24.3406 15.8637 24.4421 15.9651L26.1513 17.6744L24.7764 19.0493L22.1503 16.4232C21.1081 15.3811 19.4856 15.2659 18.3139 16.0757L17.0878 14.8496C16.8764 14.6383 16.5338 14.6383 16.3225 14.8496L13.8499 17.3223C13.7483 17.4237 13.6913 17.5614 13.6913 17.7049C13.6913 17.8484 13.7483 17.9861 13.8499 18.0876L15.0756 19.3132C14.7295 19.812 14.5424 20.4029 14.5424 21.0229C14.5424 21.8264 14.8554 22.5818 15.4235 23.15L18.0496 25.7761L16.6747 27.151L14.9654 25.4418C14.7541 25.2304 14.4114 25.2304 14.2001 25.4418L7.15876 32.4832C6.94741 32.6945 6.94741 33.0372 7.15876 33.2485L11.3426 37.4323C11.4483 37.538 11.5868 37.5909 11.7253 37.5909C11.8638 37.5909 12.0023 37.538 12.1079 37.4323L19.1492 30.391C19.3606 30.1797 19.3606 29.837 19.1492 29.6257L17.44 27.9165L18.8149 26.5415L22.2966 30.0233C22.3981 30.1248 22.5358 30.1818 22.6793 30.1818C22.8228 30.1818 22.9605 30.1248 23.0619 30.0233L24.4238 28.6614L25.2828 29.5203C24.704 31.2861 25.1139 33.308 26.5152 34.7094C26.6209 34.8151 26.7594 34.8679 26.8979 34.8679C27.0364 34.8679 27.1749 34.8151 27.2805 34.7094L30.1123 31.8776L30.3025 32.0676ZM31.3521 16.6575L27.9336 13.239L29.5226 11.65L32.9411 15.0685L31.3521 16.6575ZM31.866 9.30655L35.2845 12.7251L33.7063 14.3033L30.2878 10.8848L31.866 9.30655ZM27.1683 14.0043L30.5868 17.4228L29.0085 19.0011L25.59 15.5825L27.1683 14.0043ZM12.2392 28.9333L15.6577 32.3518L14.0687 33.9408L10.6502 30.5223L12.2392 28.9333ZM11.7253 36.2843L8.30677 32.8658L9.88499 31.2876L13.3035 34.7061L11.7253 36.2843ZM16.4231 31.5865L13.0046 28.168L14.5828 26.5898L18.0013 30.0083L16.4231 31.5865ZM21.8394 17.6431L26.4312 22.2348L21.2351 27.4309L16.6433 22.8392L21.8394 17.6431ZM20.0233 16.6255C20.3758 16.6255 20.7282 16.7221 21.0379 16.914L15.9139 22.038C15.7259 21.7362 15.6249 21.3874 15.6249 21.023C15.6249 20.5086 15.8252 20.025 16.1889 19.6612L18.6615 17.1886C19.037 16.8132 19.53 16.6255 20.0233 16.6255ZM16.7051 15.9977L17.5134 16.806L16.6598 17.6596L15.8062 18.5132L14.9978 17.7049L16.7051 15.9977ZM22.6793 28.8752L22.0004 28.1963L27.1965 23.0002L27.8754 23.6791L22.6793 28.8752ZM25.1893 27.8961L26.8965 26.1888L27.4722 26.7645C27.1314 26.9714 26.8093 27.2209 26.5152 27.515C26.2211 27.809 25.9717 28.131 25.7649 28.4717L25.1893 27.8961ZM26.9236 33.5355C25.7298 31.967 25.8488 29.7121 27.2805 28.2804C28.0613 27.4996 29.0868 27.1093 30.1123 27.1093C30.9675 27.1093 31.8225 27.3807 32.5357 27.9235L26.9236 33.5355Z" fill="white"/>
</g>
<defs>
<clipPath id="clip0">
<rect width="30" height="30" fill="white" transform="translate(7 8)"/>
</clipPath>
</defs>
</svg>
