<svg width="30" height="30" viewBox="0 0 30 30" fill="none" xmlns="http://www.w3.org/2000/svg">
<circle cx="15" cy="15" r="15" fill="#1A7900"/>
<path d="M21.9772 14.1364H16.8636V9.02273C16.8636 8.45818 16.4054 8 15.8409 8H15.1591C14.5945 8 14.1364 8.45818 14.1364 9.02273V14.1364H9.02273C8.45818 14.1364 8 14.5945 8 15.1591V15.8409C8 16.4054 8.45818 16.8636 9.02273 16.8636H14.1364V21.9772C14.1364 22.5418 14.5945 23 15.1591 23H15.8409C16.4054 23 16.8636 22.5418 16.8636 21.9772V16.8636H21.9772C22.5418 16.8636 23 16.4054 23 15.8409V15.1591C23 14.5945 22.5418 14.1364 21.9772 14.1364V14.1364Z" fill="white"/>
</svg>
